<?xml version="1.0" standalone="no"?>
<!DOCTYPE svg PUBLIC "-//W3C//DTD SVG 20010904//EN"
 "http://www.w3.org/TR/2001/REC-SVG-20010904/DTD/svg10.dtd">
<svg version="1.0" xmlns="http://www.w3.org/2000/svg"
 width="288.000000pt" height="288.000000pt" viewBox="0 0 288.000000 288.000000"
 preserveAspectRatio="xMidYMid meet">
<metadata>
Created by potrace 1.14, written by Peter Selinger 2001-2017
</metadata>
<g transform="translate(0.000000,288.000000) scale(0.100000,-0.100000)"
fill="#000000" stroke="none">
<path d="M1265 2602 c-32 -4 -177 -70 -210 -95 -19 -15 -19 -15 8 -56 15 -22
27 -43 27 -46 0 -3 11 -23 25 -43 29 -43 30 -40 10 18 -17 49 -17 50 -7 50 4
0 18 -20 31 -46 28 -52 70 -86 45 -36 -7 16 -17 43 -20 60 -6 28 -3 32 22 38
15 4 48 1 73 -6 25 -7 61 -12 79 -11 31 2 32 0 30 -31 -1 -18 -8 -46 -15 -61
-21 -43 -80 -103 -113 -117 -47 -19 -34 -50 20 -50 29 0 176 153 164 171 -15
25 97 38 157 17 36 -12 78 -53 80 -78 1 -8 3 -26 4 -39 7 -71 -48 -149 -119
-170 l-46 -13 0 -149 c0 -82 3 -149 6 -149 3 0 51 24 107 54 56 29 165 86 242
126 77 40 167 87 200 105 33 18 102 54 153 81 l94 48 -39 17 c-84 38 -196 78
-203 74 -4 -2 -44 -18 -90 -35 -77 -28 -82 -29 -77 -11 7 27 -16 139 -35 176
-24 45 -87 104 -140 131 -60 30 -166 55 -238 56 -30 1 -71 6 -90 13 -36 12
-82 15 -135 7z"/>
<path d="M1278 2376 c6 -50 -16 -109 -37 -101 -42 18 -51 16 -85 -19 -22 -21
-42 -33 -51 -30 -8 4 -15 1 -15 -5 0 -20 32 -11 58 17 34 35 51 42 81 31 19
-8 21 -12 11 -24 -23 -28 -3 -26 30 2 37 31 69 94 70 136 0 24 -4 27 -33 27
-32 0 -33 -1 -29 -34z"/>
<path d="M770 2224 c-58 -23 -109 -44 -113 -46 -5 -2 13 -15 40 -29 64 -33
322 -168 453 -237 58 -30 146 -76 196 -103 50 -27 94 -49 98 -49 3 0 6 67 6
149 0 133 -2 149 -17 154 -23 7 -81 28 -341 127 -118 44 -214 79 -215 79 -1
-1 -49 -21 -107 -45z"/>
<path d="M2200 2044 c-69 -36 -252 -130 -407 -209 l-283 -144 60 -46 c32 -25
65 -51 72 -58 8 -6 34 -27 58 -46 25 -19 64 -50 86 -68 l41 -33 51 45 c27 25
53 45 57 45 17 0 -4 -92 -26 -116 -29 -31 -101 -54 -107 -35 -5 15 0 11 -164
141 l-128 100 0 -682 0 -682 37 35 c107 101 111 106 118 164 4 30 12 55 19 56
6 1 23 2 37 3 100 9 191 66 229 142 33 66 34 204 2 275 -26 59 -93 124 -149
145 -44 17 -56 33 -25 35 9 0 24 2 32 4 8 2 30 6 47 9 99 19 206 82 258 154
67 93 86 233 51 371 -9 35 -16 67 -16 71 0 5 19 26 42 47 23 21 49 45 58 54
10 9 29 68 44 135 15 65 30 127 33 137 2 9 3 17 1 16 -2 0 -59 -29 -128 -65z
m-386 -1151 c32 -32 44 -73 39 -133 -5 -60 -45 -141 -80 -161 -35 -20 -80 -32
-86 -22 -2 5 1 40 8 79 13 74 21 132 31 226 l7 56 28 -10 c15 -5 39 -21 53
-35z"/>
<path d="M635 2079 c4 -12 8 -27 9 -33 14 -81 54 -214 66 -226 95 -85 96 -86
108 -142 29 -129 119 -208 237 -208 22 0 50 -6 60 -14 18 -13 24 -11 60 17 22
18 45 36 52 42 6 5 56 46 112 89 56 43 101 82 101 85 0 4 -80 48 -177 98 -98
50 -276 141 -395 202 -119 61 -222 111 -228 111 -7 0 -9 -8 -5 -21z"/>
<path d="M1303 1503 c-79 -63 -143 -121 -143 -128 0 -8 -15 -17 -37 -20 -78
-14 -112 -26 -159 -58 -83 -55 -115 -123 -115 -243 0 -70 29 -149 70 -192 59
-61 161 -100 272 -103 64 -2 63 -1 73 -92 3 -27 2 -29 -28 -23 -17 4 -53 20
-81 37 l-50 31 35 -37 c44 -46 118 -97 131 -90 5 4 10 -8 10 -24 1 -17 2 -34
3 -38 1 -5 6 -34 10 -66 7 -55 11 -61 79 -127 l72 -69 3 340 c1 186 1 492 0
678 l-3 339 -142 -115z m-97 -445 c3 -18 7 -39 9 -46 3 -9 0 -10 -14 -3 -22
12 -32 52 -19 76 13 21 18 15 24 -27z"/>
</g>
</svg>
